<?xml version="1.0" encoding="UTF-8" standalone="no"?>
<svg
   xml:space="preserve"
   width="607.77002"
   height="858.24597"
   version="1.1"
   id="svg8"
   sodipodi:docname="front_diamond_7.svg"
   inkscape:version="1.3 (0e150ed6c4, 2023-07-21)"
   xmlns:inkscape="http://www.inkscape.org/namespaces/inkscape"
   xmlns:sodipodi="http://sodipodi.sourceforge.net/DTD/sodipodi-0.dtd"
   xmlns="http://www.w3.org/2000/svg"
   xmlns:svg="http://www.w3.org/2000/svg"><defs
     id="defs8" /><sodipodi:namedview
     id="namedview8"
     pagecolor="#505050"
     bordercolor="#eeeeee"
     borderopacity="1"
     inkscape:showpageshadow="0"
     inkscape:pageopacity="0"
     inkscape:pagecheckerboard="0"
     inkscape:deskcolor="#d1d1d1"
     inkscape:zoom="0.87597656"
     inkscape:cx="298.52397"
     inkscape:cy="433.23077"
     inkscape:window-width="1890"
     inkscape:window-height="1111"
     inkscape:window-x="4313"
     inkscape:window-y="1244"
     inkscape:window-maximized="1"
     inkscape:current-layer="svg8" /><path
     d="m 52.796,0 h 502.178 c 29.249,0 52.796,23.547 52.796,52.796 V 805.45 c 0,29.249 -23.547,52.796 -52.796,52.796 H 52.796 C 23.547,858.246 0,834.699 0,805.45 V 52.796 C 0,23.547 23.547,0 52.796,0 Z"
     style="display:inline;opacity:1;vector-effect:none;fill:#dedfde;fill-rule:evenodd;stroke-width:10.0738;stop-color:#000000;stop-opacity:1"
     id="path1" /><path
     d="m 340.265,792.02 c 87.342,-22.897 126.119,-130.55 74.785,-208.105 -9.786,-14.957 -27.144,-31.576 -42.1,-40.254 -14.588,-8.495 -24.929,-20.312 -36.008,-41.917 -6.832,-12.74 -6.26,-19.218 -6.26,-22.357 0,-0.74 4.063,4.985 9.233,12.74 40.44,61.675 110.22,58.735 168.2,14.787 20.497,-15.51 38.778,-42.47 46.903,-69.43 3.508,-11.263 4.247,-18.28 4.431,-37.853 0,-25.298 -1.846,-35.823 -9.602,-55.027 -10.894,-26.96 -34.714,-53.55 -59.458,-66.66 -52.442,-27.514 -116.332,-13.85 -153.263,32.868 -4.985,6.278 -10.71,14.588 -12.74,18.65 -5.356,10.156 -4.986,5.724 0.738,-9.417 7.017,-18.835 18.096,-38.962 28.621,-51.888 23.267,-29.36 24.595,-34.758 42.677,-42.75 3.027,-1.353 -8.868,-15.046 -8.498,-15.416 0.369,-0.369 7.553,-0.554 -78.68,-0.554 -86.049,0 -84.45,0.554 -83.342,1.293 -6.84,10.254 -9.501,12.395 -10.647,18.28 25.482,13.296 49.302,36.377 63.52,61.86 6.648,11.448 18.097,37.854 16.989,38.777 -0.37,0.37 -4.062,-4.616 -8.31,-11.264 -14.033,-21.235 -37.3,-38.962 -63.52,-48.564 -12.188,-4.432 -16.065,-4.986 -38.408,-4.986 -22.343,0 -26.221,0.554 -38.408,4.986 -41.732,15.142 -71.277,47.271 -83.833,91.404 -3.324,11.817 -4.062,18.65 -4.062,38.408 0.184,21.789 0.738,25.667 6.093,41.547 16.804,50.226 55.766,83.463 106.176,90.665 43.394,6.093 77.522,-2.174 104.112,-41.69 4.432,-6.647 8.125,-11.633 8.125,-11.08 0,2.401 4.464,7.899 -1.075,18.978 -8.68,17.358 -20.866,33.238 -33.607,43.948 -24.56,20.68 -40.44,38.223 -48.38,53.734 -11.264,21.604 -15.326,39.331 -15.51,65.183 -0.37,33.422 8.678,60.566 28.805,86.233 12.187,15.51 22.343,24.005 40.255,33.792 26.59,14.403 57.981,18.28 86.048,11.079 z"
     style="fill:none;stroke:#000000;stroke-width:5;stroke-dasharray:none;stroke-opacity:1"
     id="path2" /><path
     d="m 306.617,293.61 c -2.6,26.334 -14.305,56.246 -33,84.044 -18.207,27.147 -35.276,46.492 -102.25,115.418 -48.281,49.744 -69.252,78.517 -79.493,109.403 -13.818,41.291 2.276,92.66 37.714,120.62 19.995,15.932 43.241,24.06 68.6,24.222 27.857,-3.7 60.473,-4.904 81.418,-24.223 0.325,0.325 -0.378,4.713 -2.491,11.053 -6.33,18.557 -24.264,35.265 -53.567,46.658 -15.314,5.954 -34.463,13.005 -43.566,13.005 -3.251,0 -6.34,0.487 -6.665,1.138 -0.488,0.813 60.473,1.3 135.413,1.3 74.941,0 136.064,-0.162 135.739,-0.487 -0.163,-0.326 -5.202,-1.138 -11.217,-2.114 -24.411,-3.356 -75.62,-15.784 -92.795,-61.455 -5.69,-14.956 -5.04,-16.094 1.95,-4.064 21.459,36.088 74.627,24.282 85.26,23.477 27.474,-4.064 49.964,-19.406 69.147,-39.563 18.857,-19.833 29.098,-43.73 30.886,-71.202 C 530.789,591.259 510.631,557.771 425.774,471.126 402.04,447.067 377.331,421.22 370.829,413.905 332.302,369.688 312.794,331.486 308.893,292.309 l -1.138,-11.38 z"
     style="fill:none;stroke:#000000;stroke-width:5;stroke-dasharray:none;stroke-opacity:1"
     id="path3" /><path
     d="m 287.882,119.663 c -26.824,41.398 -77.516,113.423 -98.638,139.825 -25.346,31.894 -88.71,94.836 -156.3,155.455 L 19.85,426.56 58.291,461.622 c 51.115,46.679 106.453,102.018 126.73,126.941 20.488,25.135 62.309,83.853 95.47,134.123 13.94,20.91 25.768,38.23 26.402,38.23 0.633,0 13.518,-18.587 28.936,-41.61 31.26,-46.89 66.956,-97.16 87.233,-123.35 17.742,-22.812 69.49,-75.616 116.169,-118.704 20.277,-18.587 40.976,-37.808 46.045,-42.454 l 9.082,-8.45 -36.329,-32.738 C 501.001,342.074 443.339,283.778 420.949,254.63 397.082,223.581 354.628,163.385 327.592,121.775 316.82,105.3 307.526,91.782 306.892,91.782 c -0.633,0 -9.081,12.462 -19.009,27.88 z"
     style="fill:none;stroke:#007bc7;stroke-width:5;stroke-dasharray:none;stroke-opacity:1"
     id="path4" /><path
     d="m 184.492,93.153 c -35.551,9.222 -62.475,37.634 -75.118,78.837 -2.975,9.52 -3.422,14.429 -3.422,32.725 0,20.378 0.15,22.312 4.612,35.253 12.197,35.254 29.006,59.202 88.952,126.883 37.782,42.691 52.508,60.839 67.978,83.895 23.8,35.55 38.08,73.036 38.526,101.744 0.149,7.735 0.446,8.925 1.339,5.504 0.595,-2.529 1.19,-7.884 1.338,-11.9 0.447,-15.916 9.52,-44.476 21.569,-66.937 16.214,-30.642 32.427,-51.467 94.753,-121.38 37.782,-42.393 55.335,-65.449 67.086,-88.505 12.346,-24.097 16.66,-40.46 16.66,-63.813 0,-35.849 -12.792,-65.748 -38.08,-89.399 -31.832,-29.75 -79.134,-33.914 -114.983,-10.263 -8.032,5.355 -21.568,18.593 -28.41,27.518 -5.802,7.884 -14.727,26.775 -17.702,37.931 l -2.678,9.966 -2.677,-10.114 c -1.488,-5.504 -5.355,-15.47 -8.627,-22.015 -21.867,-44.328 -67.83,-67.384 -111.116,-55.93 z"
     style="fill:none;stroke:#000000;stroke-width:5;stroke-dasharray:none;stroke-opacity:1"
     id="path5" /><path
     d="m 41.36,48.42 v 317.47 h 5 V 53.42 h 433.727 v -5 z m 527,77.475 V 365.89 h 5 V 125.895 Z m -527,362.777 v 241.88 h 5 v -241.88 z m 527,0 V 814.42 H 126.465 v 5 H 573.36 V 488.672 Z"
     style="opacity:1;fill:#007bc7;fill-opacity:1;fill-rule:evenodd;stroke:none;stroke-width:4.99568;stop-color:#000000;stop-opacity:1"
     id="path6" /><path
     d="m 529.522,96.998 21.877,-47.339 h -28.746 v -5.973 h 35.765 v 5.077 l -21.653,48.235 z"
     aria-label="7"
     style="font-size:74.6667px;line-height:1;fill:#007bc7"
     id="path7" /><path
     d="m 80.141,762.44 -21.877,47.34 h 28.747 v 5.973 H 51.245 v -5.078 l 21.654,-48.234 z"
     aria-label="7"
     style="font-size:74.6667px;line-height:1;fill:#007bc7"
     id="path8" /></svg>
